<svg id="Layer_1" data-name="Layer 1" xmlns="http://www.w3.org/2000/svg" viewBox="0 0 351.96 344.34"><defs><style>.cls-1,.cls-3,.cls-5,.cls-6{fill:none;}.cls-2,.cls-7{fill:#010101;}.cls-3,.cls-4{stroke:#010101;}.cls-3,.cls-4,.cls-5,.cls-6{stroke-miterlimit:10;}.cls-4{fill:#4d7bbe;}.cls-5,.cls-6{stroke:#fff;}.cls-6{stroke-width:3px;}.cls-7{font-size:39px;font-family:CambriaMath, Cambria Math;}.cls-8{letter-spacing:-0.02em;}.cls-9{letter-spacing:-0.01em;}</style></defs><rect class="cls-1" y="29.97" width="345.16" height="194.21"/><path class="cls-2" d="M67.29,9.72c11.58,0,21,14.09,21,31.4,0,12.86-5.2,24.3-13.26,29.15a10,10,0,0,0-4.71,8.81l3.22,138a6.57,6.57,0,0,1-1.86,4.78,6.06,6.06,0,0,1-8.75,0,6.57,6.57,0,0,1-1.85-4.8L64.83,79.44a9.94,9.94,0,0,0-4.92-9C51.76,65.82,46.29,54,46.29,41.12c0-17.31,9.42-31.4,21-31.4m0-3c-13.25,0-24,15.4-24,34.4,0,14.5,6.27,26.9,15.13,31.95a7,7,0,0,1,3.41,6.29L58.08,217a9.37,9.37,0,0,0,9.23,9.75h0A9.36,9.36,0,0,0,76.54,217L73.32,79a7,7,0,0,1,3.26-6.17c8.64-5.2,14.71-17.44,14.71-31.72,0-19-10.74-34.4-24-34.4Z" transform="translate(-31.33 -6.72)"/><path class="cls-2" d="M373.13,17.46a7.93,7.93,0,0,1,4,6.32l3.06,31.1a11.28,11.28,0,0,1-4.31,10.21l-12.76,9.43A10.57,10.57,0,0,0,359,83.28L362.08,224a7,7,0,0,1-1.91,5,5.36,5.36,0,0,1-7.84,0,7,7,0,0,1-1.91-5l3.64-140.71A10.6,10.6,0,0,0,350,74.53L337.45,65a11.35,11.35,0,0,1-4.23-9.84l2.37-32.07a7.08,7.08,0,0,1,3.14-5.47V42.86a6.48,6.48,0,0,0,6.33,6.6,6.26,6.26,0,0,0,5.43-3.24,6.19,6.19,0,0,0,10.88,0,6.27,6.27,0,0,0,5.44,3.24,6.47,6.47,0,0,0,6.32-6.6V17.46m-3-3.74h0V42.86a3.33,3.33,0,1,1-6.64,0V16a2.12,2.12,0,1,0-4.23,0V42.86a3.47,3.47,0,0,1-3.33,3.6h0a3.47,3.47,0,0,1-3.32-3.6V16a2.12,2.12,0,1,0-4.23,0V42.86a3.34,3.34,0,1,1-6.65,0V13.72h0c-4.77,0-8.75,4-9.13,9.14l-2.37,32.07a14.31,14.31,0,0,0,5.4,12.45l12.53,9.54a7.56,7.56,0,0,1,2.9,6.25l-3.63,140.72c-.14,5.38,3.85,9.83,8.82,9.83h0c5,0,8.95-4.42,8.83-9.8L362,83.22a7.6,7.6,0,0,1,3-6.29l12.77-9.43a14.33,14.33,0,0,0,5.51-12.92l-3.06-31.09c-.55-5.56-4.87-9.77-10-9.77Z" transform="translate(-31.33 -6.72)"/><path class="cls-3" d="M40.29,265.22" transform="translate(-31.33 -6.72)"/><path class="cls-3" d="M91.79,247.72" transform="translate(-31.33 -6.72)"/><ellipse class="cls-4" cx="182.46" cy="116" rx="107" ry="81.5"/><line class="cls-3" x1="9.46" y1="235.5" x2="9.46" y2="235.5"/><path class="cls-5" d="M309.57,163.22" transform="translate(-31.33 -6.72)"/><path class="cls-6" d="M298.3,122.48a84.6,84.6,0,0,1-72.87,40.74c-46.47,0-84.14-36.49-84.14-81.5v81.5c0-45,37.67-81.5,84.14-81.5A84.63,84.63,0,0,1,298,121.93" transform="translate(-31.33 -6.72)"/><ellipse class="cls-6" cx="233.99" cy="115.21" rx="7.25" ry="10.87"/><path class="cls-6" d="M257.87,159.76l-.79-1.95a81.77,81.77,0,0,1-6.26-32.62,82.8,82.8,0,0,1,10-36.57" transform="translate(-31.33 -6.72)"/><path class="cls-6" d="M232,85" transform="translate(-31.33 -6.72)"/><path class="cls-6" d="M227.61,154.53" transform="translate(-31.33 -6.72)"/><line class="cls-6" x1="266.63" y1="115.21" x2="268.08" y2="115.21"/><line class="cls-5" x1="278.96" y1="106.51" x2="278.96" y2="106.51"/><text class="cls-7" transform="translate(69 248.25)">Ocean <tspan class="cls-8" x="111.1" y="0">F</tspan><tspan class="cls-9" x="131.26" y="0">r</tspan><tspan x="146.82" y="0">esh</tspan></text></svg>