<?xml version="1.0" encoding="utf-8"?>
<!-- Generator: Adobe Illustrator 26.0.2, SVG Export Plug-In . SVG Version: 6.00 Build 0)  -->
<svg version="1.1" id="Layer_1" xmlns="http://www.w3.org/2000/svg" xmlns:xlink="http://www.w3.org/1999/xlink" x="0px" y="0px"
	 viewBox="0 0 414 263" style="enable-background:new 0 0 414 263;" xml:space="preserve">
<style type="text/css">
	.st0{fill:none;}
	.st1{fill:#010101;}
	.st2{fill:none;stroke:#010101;stroke-miterlimit:10;}
	.st3{fill:#4D7BBE;stroke:#010101;stroke-miterlimit:10;}
	.st4{fill:none;stroke:#FFFFFF;stroke-miterlimit:10;}
	.st5{fill:none;stroke:#FFFFFF;stroke-width:3;stroke-miterlimit:10;}
	.st6{font-family:'CambriaMath';}
	.st7{font-size:39px;}
</style>
<g>
	<rect x="31.3" y="36.7" class="st0" width="345.2" height="194.2"/>
</g>
<g>
	<path class="st1" d="M67.3,9.7c11.6,0,21,14.1,21,31.4c0,12.9-5.2,24.3-13.3,29.2c-3,1.8-4.8,5.2-4.7,8.8l3.2,138
		c0,1.8-0.6,3.5-1.9,4.8c-1.2,1.2-2.7,1.9-4.4,1.9c-1.6,0-3.2-0.7-4.4-1.9c-1.2-1.3-1.9-3-1.9-4.8l3.7-137.6c0.1-3.7-1.8-7.2-4.9-9
		C51.8,65.8,46.3,54,46.3,41.1C46.3,23.8,55.7,9.7,67.3,9.7 M67.3,6.7c-13.3,0-24,15.4-24,34.4c0,14.5,6.3,26.9,15.1,32
		c2.2,1.3,3.5,3.7,3.4,6.3L58.1,217c-0.1,5.3,4,9.8,9.2,9.8h0c5.2,0,9.4-4.4,9.2-9.7L73.3,79c-0.1-2.5,1.2-4.9,3.3-6.2
		c8.6-5.2,14.7-17.4,14.7-31.7C91.3,22.1,80.5,6.7,67.3,6.7L67.3,6.7z"/>
</g>
<g>
	<path class="st1" d="M373.1,17.5c2.2,1.1,3.8,3.5,4,6.3l3.1,31.1c0.4,4-1.3,8-4.3,10.2l-12.8,9.4c-2.7,2-4.3,5.3-4.2,8.8l3.1,140.7
		c0,1.9-0.7,3.7-1.9,5c-1.1,1.1-2.5,1.7-3.9,1.7c-1.5,0-2.8-0.6-3.9-1.7c-1.3-1.3-2-3.1-1.9-5l3.6-140.7c0.1-3.4-1.4-6.7-4.1-8.7
		L337.4,65c-2.9-2.2-4.5-6-4.2-9.8l2.4-32.1c0.2-2.4,1.4-4.4,3.1-5.5v25.2c0,3.6,2.8,6.6,6.3,6.6c2.3,0,4.3-1.3,5.4-3.2
		c1.1,1.9,3.1,3.2,5.4,3.2c2.3,0,4.3-1.3,5.4-3.2c1.1,1.9,3.1,3.2,5.4,3.2c3.5,0,6.3-3,6.3-6.6L373.1,17.5 M370.1,13.7L370.1,13.7
		l0,29.1c0,2-1.5,3.6-3.3,3.6c-1.8,0-3.3-1.6-3.3-3.6V16c0-1.3-0.9-2.3-2.1-2.3s-2.1,1-2.1,2.3v26.8c0,2-1.5,3.6-3.3,3.6h0
		c-1.8,0-3.3-1.6-3.3-3.6V16c0-1.3-0.9-2.3-2.1-2.3c-1.2,0-2.1,1-2.1,2.3v26.8c0,2-1.5,3.6-3.3,3.6s-3.3-1.6-3.3-3.6V13.7h0
		c-4.8,0-8.8,4-9.1,9.1l-2.4,32.1c-0.4,4.9,1.7,9.6,5.4,12.4l12.5,9.5c1.9,1.4,3,3.8,2.9,6.3l-3.6,140.7c-0.1,5.4,3.9,9.8,8.8,9.8h0
		c5,0,8.9-4.4,8.8-9.8L362,83.2c-0.1-2.5,1.1-4.9,3-6.3l12.8-9.4c3.9-2.9,6-7.8,5.5-12.9l-3.1-31.1
		C379.6,17.9,375.3,13.7,370.1,13.7L370.1,13.7z"/>
</g>
<path class="st2" d="M40.3,265.2"/>
<path class="st2" d="M91.8,247.7"/>
<ellipse class="st3" cx="213.8" cy="122.7" rx="107" ry="81.5"/>
<line class="st2" x1="40.8" y1="242.2" x2="40.8" y2="242.2"/>
<path class="st4" d="M309.6,163.2"/>
<path class="st5" d="M298.3,122.5c-14.5,24.4-41.7,40.7-72.9,40.7c-46.5,0-84.1-36.5-84.1-81.5v81.5c0-45,37.7-81.5,84.1-81.5
	c30.9,0,57.9,16.1,72.6,40.2"/>
<ellipse class="st5" cx="265.3" cy="121.9" rx="7.3" ry="10.9"/>
<path class="st5" d="M257.9,159.8c-0.2-0.6-0.5-1.2-0.8-1.9c-2.6-6.5-6.6-18.1-6.3-32.6c0.3-12.8,4-25.4,10-36.6"/>
<path class="st5" d="M232,85"/>
<path class="st5" d="M227.6,154.5"/>
<line class="st5" x1="298" y1="121.9" x2="299.4" y2="121.9"/>
<line class="st4" x1="310.3" y1="113.2" x2="310.3" y2="113.2"/>
<rect x="100.3" y="227.7" class="st0" width="249" height="40.6"/>
<text transform="matrix(1 0 0 1 100.3292 254.9722)" class="st1 st6 st7">Ocean Fresh</text>
</svg>
